<svg height="511pt" viewBox="0 -53 511.99986 511" width="511pt" xmlns="http://www.w3.org/2000/svg"><path d="m205.628906 173.175781c-11.140625-6.40625-33.214844-10.910156-57.601562-11.75-16.261719-.558593-47.222656.179688-71.882813 11.425781-3.804687 1.734376-5.484375 6.222657-3.746093 10.027344 1.269531 2.789063 4.015624 4.433594 6.890624 4.433594 1.050782 0 2.121094-.222656 3.136719-.683594 36.800781-16.78125 98.699219-10.078125 115.652344-.328125 3.621094 2.085938 8.253906.835938 10.335937-2.789062 2.085938-3.621094.839844-8.25-2.785156-10.335938zm0 0"/><path d="m205.636719 224.585938c-11.140625-6.421876-33.214844-10.933594-57.609375-11.777344-16.257813-.558594-47.222656.183594-71.886719 11.449218-3.804687 1.738282-5.480469 6.230469-3.742187 10.03125 1.273437 2.785157 4.019531 4.429688 6.890624 4.429688 1.054688 0 2.121094-.222656 3.140626-.6875 36.8125-16.8125 98.699218-10.097656 115.640624-.328125 3.621094 2.089844 8.25.847656 10.339844-2.777344 2.089844-3.621093.847656-8.25-2.773437-10.339843zm0 0"/><path d="m79.289062 135.933594c1.050782 0 2.121094-.21875 3.136719-.683594 36.839844-16.800781 98.71875-10.089844 115.644531-.328125 3.621094 2.085937 8.25.84375 10.339844-2.777344 2.089844-3.621093.847656-8.25-2.773437-10.339843-11.136719-6.421876-33.210938-10.929688-57.613281-11.765626-16.253907-.554687-47.214844.1875-71.878907 11.433594-3.804687 1.738282-5.484375 6.226563-3.75 10.03125 1.273438 2.785156 4.019531 4.429688 6.894531 4.429688zm0 0"/><path d="m205.636719 70.425781c-11.140625-6.421875-33.214844-10.933593-57.609375-11.773437-16.261719-.5625-47.226563.183594-71.886719 11.445312-3.804687 1.738282-5.480469 6.230469-3.742187 10.035156 1.273437 2.78125 4.019531 4.425782 6.890624 4.425782 1.054688 0 2.121094-.222656 3.140626-.6875 36.8125-16.8125 98.699218-10.09375 115.640624-.328125 3.621094 2.089843 8.25.847656 10.339844-2.773438 2.089844-3.625.847656-8.253906-2.773437-10.34375zm0 0"/><path d="m403.398438 176.105469c-39.667969-18.089844-106.726563-12.746094-129.480469.320312-3.625 2.082031-4.878907 6.710938-2.796875 10.335938 2.085937 3.628906 6.710937 4.878906 10.339844 2.796875 16.964843-9.746094 78.878906-16.449219 115.652343.320312 1.019531.464844 2.085938.683594 3.140625.683594 2.871094 0 5.621094-1.644531 6.890625-4.429688 1.734375-3.800781.058594-8.292968-3.746093-10.027343zm0 0"/><path d="m403.398438 227.511719c-39.710938-18.109375-106.761719-12.757813-129.488282.328125-3.621094 2.085937-4.871094 6.714844-2.78125 10.335937 2.085938 3.625 6.714844 4.871094 10.339844 2.785157 16.9375-9.753907 78.832031-16.460938 115.648438.328124 1.019531.464844 2.085937.683594 3.136718.683594 2.875 0 5.621094-1.644531 6.890625-4.429687 1.734375-3.808594.058594-8.296875-3.746093-10.03125zm0 0"/><path d="m281.460938 138.179688c16.964843-9.742188 78.878906-16.445313 115.652343.324218 1.019531.464844 2.085938.683594 3.140625.683594 2.871094 0 5.621094-1.644531 6.890625-4.429688 1.734375-3.804687.058594-8.296874-3.746093-10.03125-39.667969-18.085937-106.726563-12.742187-129.480469.324219-3.628907 2.082031-4.878907 6.710938-2.796875 10.335938 2.085937 3.625 6.710937 4.875 10.339844 2.792969zm0 0"/><path d="m281.46875 86.800781c16.953125-9.765625 78.855469-16.476562 115.644531.324219 1.019531.464844 2.085938.6875 3.140625.6875 2.871094 0 5.617188-1.644531 6.890625-4.429688 1.738281-3.800781.0625-8.292968-3.742187-10.03125-39.683594-18.125-106.746094-12.769531-129.492188.328126-3.621094 2.085937-4.867187 6.714843-2.78125 10.335937 2.085938 3.625 6.714844 4.871094 10.339844 2.785156zm0 0"/><path d="m508.828125 355.097656-28.601563-36.246094 1.738282-1.34375c.105468-.082031.210937-.167968.3125-.253906 12.207031-10.539062 12.070312-21.070312 10.898437-26.414062-1.53125-6.996094-6.546875-13.378906-13.605469-17.8125v-200.835938c0-19.476562-15.914062-35.324218-35.507812-35.425781-.261719-18.996094-11.183594-22.070313-27.628906-26.675781l-.265625-.074219c-28.964844-8.152344-65.425781-11.210937-102.664063-8.613281-30.839844 2.152344-57.871094 7.902344-73.730468 15.578125-17.824219-8.644531-49.550782-14.765625-84.550782-16.175781-4.179687-.175782-7.699218 3.082031-7.871094 7.257812-.167968 4.179688 3.082032 7.703125 7.261719 7.871094 31.527344 1.269531 61.726563 6.871094 77.585938 14.210937v258.050781c-18.980469-7.0625-48.183594-11.996093-78.980469-13.050781-23.371094-.796875-65.929688.085938-102.578125 13.523438v-251.214844c0-7.996094 0-8.148437 16.582031-12.792969l.257813-.070312c16.699219-4.710938 35.824219-7.59375 56.847656-8.574219 4.175781-.195313 7.402344-3.738281 7.207031-7.914063-.191406-4.175781-3.726562-7.414062-7.914062-7.210937-22.171875 1.035156-42.445313 4.105469-60.238282 9.121094l-.246093.070312c-16.445313 4.605469-27.367188 7.679688-27.628907 26.683594-19.59375.082031-35.507812 15.941406-35.507812 35.425781v243.667969c0 22.53125 16.324219 45.355469 47.523438 45.390625l337.257812.0625c2.347656 2.890625 5.160156 5.238281 8.371094 6.839844 4.933594 2.464844 15.203125 5.226562 28.527344-3.996094.109374-.074219.21875-.15625.324218-.238281l1.84375-1.425781 28.6875 36.40625c2.929688 3.679687 7.296875 5.601562 11.699219 5.601562 3.199219 0 6.414063-1.011719 9.113281-3.105469l32.90625-25.460937c3.148438-2.4375 5.148438-5.957032 5.632813-9.90625.484375-3.941406-.601563-7.820313-3.058594-10.929688zm-96.753906-330.503906.273437.074219c16.582032 4.644531 16.582032 4.800781 16.582032 12.785156v98.957031c0 4.183594 3.390624 7.570313 7.574218 7.570313 4.179688 0 7.570313-3.386719 7.570313-7.570313v-84.496094c11.238281.101563 20.355469 9.15625 20.355469 20.273438v194.859375l-20.355469-5.859375v-89.070312c0-4.179688-3.390625-7.570313-7.570313-7.570313-4.183594 0-7.574218 3.390625-7.574218 7.570313v84.710937l-14.386719-4.144531c-12.34375-4.09375-22.167969-3.597656-29.199219 1.476562-6.214844 4.480469-9.671875 12.097656-10.316406 22.65625-48.289063-5.207031-99.691406 1.035156-127.6875 11.402344v-258.085938c29.375-13.695312 106.9375-21.8125 164.734375-5.539062zm-164.730469 279.953125c23.503906-10.925781 78.1875-18.167969 128.007812-12.460937l.738282 18.914062h-128.746094zm-15.144531.011719v6.441406h-174.582031c-3.488282 0-6.378907-2.664062-6.890626-6.125 58.179688-23.890625 149.960938-14.855469 181.472657-.316406zm-217.058594 11.300781v-243.671875c0-11.128906 9.117187-20.1875 20.355469-20.277344v251.875c0 12.328125 9.925781 22.355469 22.121094 22.355469h174.582031v20.1875l-184.65625-.21875c-22.261719-.027344-32.402344-15.699219-32.402344-30.25zm232.203125 30.46875v-20.1875h129.339844l.535156 13.703125c.082031 2.175781.34375 4.289062.738281 6.332031zm216.902344 42.964844-33.148438-42.070313c-1.492187-1.894531-3.710937-2.882812-5.953125-2.882812-1.617187 0-3.25.515625-4.628906 1.582031l-7.613281 5.894531c-3.613282 2.46875-8.746094 4.90625-12.984375 2.789063-4.1875-2.09375-7.300781-8.402344-7.570313-15.351563l-2.296875-58.765625c.007813-7.136719 1.480469-12.121093 4.152344-14.050781 2.804687-2.019531 8.378906-1.789062 15.699219.65625.101562.035156.203125.066406.304687.09375l54.910157 15.8125c6.816406 1.972656 12.273437 6.527344 13.269531 11.078125.980469 4.472656-2.609375 8.75-5.859375 11.585937l-7.609375 5.894532c-1.597657 1.234375-2.636719 3.058594-2.882813 5.0625-.246094 2.007812.320313 4.027344 1.574219 5.613281l33.097656 41.941406zm0 0"/></svg>